<?xml version="1.0" standalone="no"?>
<!DOCTYPE svg PUBLIC "-//W3C//DTD SVG 20010904//EN"
 "http://www.w3.org/TR/2001/REC-SVG-20010904/DTD/svg10.dtd">
<svg version="1.0" xmlns="http://www.w3.org/2000/svg"
 width="1764.000000pt" height="1764.000000pt" viewBox="0 0 1764.000000 1764.000000"
 preserveAspectRatio="xMidYMid meet">
<metadata>
Created by potrace 1.14, written by Peter Selinger 2001-2017
</metadata>
<g transform="translate(0.000000,1764.000000) scale(0.100000,-0.100000)"
fill="#000000" stroke="none">
<path d="M16419 11515 c-3 -2 -27 -6 -54 -9 -106 -11 -236 -40 -374 -83 -63
-19 -122 -36 -130 -38 -13 -3 -128 -48 -386 -153 -163 -66 -623 -316 -665
-362 -3 -3 -32 -23 -65 -45 -33 -21 -67 -45 -75 -52 -8 -7 -65 -52 -127 -101
-123 -97 -242 -202 -344 -305 l-68 -68 -35 39 c-20 21 -49 65 -66 99 -17 33
-41 72 -54 86 -13 14 -34 44 -47 67 -12 22 -26 40 -31 40 -4 0 -8 4 -8 10 0
15 -27 47 -113 132 -151 150 -350 258 -597 323 -12 3 -117 26 -135 29 -20 4
-107 16 -155 22 -130 16 -385 21 -565 10 -221 -14 -258 -17 -385 -32 -30 -3
-71 -8 -90 -10 -38 -3 -117 -12 -165 -18 -16 -2 -59 -7 -95 -10 -36 -4 -76 -8
-90 -10 -25 -5 -123 -16 -170 -21 -59 -6 -145 -17 -150 -20 -3 -2 -24 -6 -46
-9 -22 -4 -51 -9 -64 -12 -14 -3 -38 -8 -55 -10 -63 -12 -197 -47 -238 -63
-39 -15 -60 -14 -83 7 -10 9 -32 24 -48 32 -57 29 -66 35 -66 42 0 5 -4 8 -10
8 -5 0 -33 11 -62 24 -355 158 -719 190 -1493 130 -121 -9 -248 -22 -295 -30
-14 -2 -45 -7 -70 -10 -57 -7 -210 -41 -272 -59 -66 -19 -145 -60 -185 -95
-19 -17 -38 -31 -43 -31 -16 -2 -23 -5 -75 -29 -27 -12 -70 -31 -95 -42 -304
-134 -520 -265 -520 -315 0 -7 -5 -13 -11 -13 -5 0 -7 -5 -3 -11 4 -7 -2 -9
-17 -7 -20 3 -27 -6 -51 -67 -15 -38 -28 -65 -28 -60 -11 89 -42 239 -51 250
-5 5 -9 17 -9 27 0 10 -19 57 -43 105 -29 61 -62 106 -108 155 l-67 69 -57 -4
-58 -4 -32 -84 c-65 -168 -58 -159 -118 -160 -28 -1 -58 -2 -66 -3 -10 -1 -15
-15 -15 -49 -1 -26 -6 -51 -11 -55 -31 -22 -75 -142 -75 -206 0 -21 -6 -28
-30 -32 -16 -4 -30 -10 -30 -14 0 -4 -20 -27 -44 -51 -41 -41 -96 -147 -96
-184 0 -8 -5 -15 -10 -15 -6 0 -9 -3 -8 -7 2 -5 -10 -39 -26 -78 -15 -38 -30
-79 -32 -91 -10 -54 -122 -303 -191 -424 -11 -19 -35 -62 -53 -95 -18 -33 -48
-84 -66 -113 -19 -29 -34 -54 -34 -57 0 -2 -13 -24 -30 -48 -16 -25 -30 -48
-30 -51 0 -4 -5 -12 -10 -19 -6 -7 -65 -95 -132 -196 -66 -102 -125 -189 -130
-195 -20 -24 -168 -247 -168 -254 0 -4 -10 -19 -23 -35 -12 -15 -51 -68 -87
-116 -36 -49 -67 -88 -69 -85 -11 10 137 456 197 592 9 21 16 39 17 42 1 3 7
17 13 33 7 15 17 39 24 55 6 15 11 30 10 35 -1 4 2 7 8 7 5 0 10 9 10 20 0 11
5 20 10 20 6 0 9 3 8 8 -1 4 5 23 14 42 171 383 231 528 283 685 38 114 41
125 50 185 6 44 -13 107 -45 151 -50 68 -136 151 -195 190 -52 34 -60 44 -62
72 -4 84 -34 152 -99 224 -16 17 -38 42 -50 55 -72 81 -194 156 -299 183 -16
5 -37 10 -45 12 -8 2 -67 5 -131 5 -123 1 -208 -14 -249 -42 -14 -9 -30 -19
-37 -21 -23 -8 -114 -102 -159 -165 -52 -73 -65 -103 -215 -519 -62 -170 -113
-311 -114 -312 0 -1 -11 0 -23 4 -12 3 -19 9 -16 14 9 14 -16 89 -38 114 -12
13 -37 26 -59 30 -24 4 -39 12 -39 21 0 8 5 14 10 14 6 0 10 9 10 20 0 14 -7
20 -22 21 -39 1 -61 7 -68 19 -8 13 0 69 11 76 18 11 10 44 -11 44 -37 0 -20
20 18 21 20 1 51 3 67 4 17 2 42 3 57 4 22 1 26 5 23 22 -4 19 -29 46 -47 50
-5 1 -12 3 -18 4 -5 1 -17 3 -26 4 -13 1 -14 4 -5 15 9 10 2 22 -34 55 -24 22
-50 42 -57 42 -7 1 -24 3 -38 5 -28 5 -30 5 -95 3 -25 -1 -47 0 -50 3 -2 2 -6
22 -7 43 -3 32 -8 40 -28 46 -28 8 -18 10 55 12 l50 2 0 60 c0 33 -4 71 -10
85 -11 29 -60 77 -87 86 -10 3 -18 9 -18 14 0 15 -69 77 -107 96 -33 16 -58
19 -188 16 -82 -1 -287 -5 -455 -7 -227 -4 -324 -10 -380 -22 -41 -9 -84 -17
-95 -19 -11 -1 -31 -5 -45 -7 -105 -22 -395 -78 -470 -92 -14 -3 -38 -8 -55
-11 -16 -4 -41 -8 -55 -10 -30 -4 -76 -11 -110 -19 -14 -3 -52 -10 -85 -16
-33 -5 -71 -12 -85 -15 -14 -3 -38 -7 -55 -9 -16 -1 -47 -6 -69 -10 -21 -4
-50 -8 -65 -10 -14 -2 -26 -4 -26 -5 0 -1 -11 -3 -25 -5 -28 -3 -94 -13 -129
-20 -13 -2 -44 -7 -70 -10 -25 -4 -57 -8 -71 -10 -14 -2 -45 -6 -70 -9 -25 -3
-56 -8 -70 -11 -14 -3 -50 -8 -80 -10 -30 -3 -68 -7 -85 -9 -16 -2 -66 -7
-110 -11 -44 -4 -96 -9 -115 -11 -33 -3 -222 -13 -341 -18 -68 -3 -110 -27
-170 -96 -42 -48 -90 -123 -93 -145 -1 -5 -4 -14 -8 -20 -18 -29 -4 -151 29
-258 18 -62 36 -120 38 -130 4 -17 42 -97 69 -144 73 -128 235 -255 356 -280
17 -3 33 -9 36 -14 2 -4 11 -6 18 -3 9 4 30 -17 57 -58 24 -35 52 -72 64 -83
37 -36 123 -105 131 -105 4 0 27 -9 50 -20 23 -12 51 -23 63 -25 12 -2 24 -6
29 -9 27 -17 191 -21 266 -7 25 5 46 7 46 6 0 -2 -18 -39 -40 -83 -36 -75 -57
-117 -144 -304 -61 -133 -76 -167 -76 -177 0 -5 -3 -11 -7 -13 -7 -3 -70 -137
-77 -163 -2 -5 -15 -37 -30 -70 -66 -143 -76 -166 -76 -170 0 -3 -9 -24 -19
-48 -11 -23 -32 -71 -46 -107 -14 -36 -32 -78 -40 -95 -49 -112 -202 -540
-220 -618 -3 -12 -16 -69 -30 -127 -14 -58 -26 -140 -27 -182 -3 -76 -2 -78
40 -137 23 -33 42 -64 42 -68 0 -4 33 -27 73 -51 117 -69 144 -98 146 -153 1
-12 9 -16 31 -14 18 2 38 -5 52 -17 30 -26 66 -44 105 -53 18 -3 33 -13 33
-20 0 -8 44 -43 98 -79 55 -36 110 -79 123 -95 25 -32 49 -41 49 -18 0 8 3 7
9 -3 6 -8 8 -17 6 -20 -9 -15 53 -60 90 -66 26 -4 57 -20 88 -46 44 -36 50
-39 78 -29 16 6 44 20 62 33 44 31 117 107 118 124 2 18 4 24 17 57 7 16 12
31 12 34 0 9 69 202 86 240 8 17 14 34 14 38 0 4 6 21 14 38 8 18 40 97 71
177 62 158 167 414 193 470 9 19 17 40 18 45 1 6 14 36 28 68 14 31 25 58 24
60 -1 1 5 16 14 32 24 46 69 153 66 158 -1 1 5 16 14 32 20 35 78 164 78 172
0 3 16 39 35 80 19 41 35 76 35 79 0 2 11 27 24 56 13 29 56 127 96 218 40 91
77 171 83 178 5 6 7 12 4 12 -5 0 28 78 83 195 24 52 149 331 166 371 12 28
22 70 29 114 5 41 49 167 72 208 46 84 88 116 165 126 26 4 53 8 60 11 7 2 29
6 48 9 173 25 437 73 452 82 7 4 8 2 4 -4 -5 -9 -1 -9 17 -3 13 5 41 12 63 15
21 3 50 8 64 11 14 3 39 7 55 10 44 7 92 15 160 27 33 6 71 12 85 14 14 2 46
7 72 12 27 5 48 8 48 6 0 -5 -52 -148 -65 -179 -7 -16 -23 -59 -35 -95 -23
-65 -60 -159 -85 -215 -18 -40 -94 -262 -99 -289 -2 -11 -9 -41 -16 -66 -16
-61 -22 -87 -35 -155 -4 -22 -9 -51 -12 -65 -7 -38 -11 -60 -18 -120 -3 -30
-8 -66 -11 -80 -25 -145 -20 -637 7 -708 6 -15 10 -27 9 -27 -2 0 3 -30 14
-95 17 -93 97 -229 192 -325 47 -48 141 -125 152 -125 7 0 12 -3 12 -7 0 -5
10 -13 23 -19 12 -6 51 -26 86 -44 36 -18 70 -33 77 -34 7 -1 27 -20 46 -42
81 -97 153 -156 258 -213 67 -36 134 -64 180 -76 161 -43 213 -49 415 -49 282
1 496 56 719 187 65 37 107 76 197 182 19 22 43 49 55 60 11 11 73 85 138 165
65 80 128 156 140 170 11 14 34 43 50 65 17 22 33 42 36 45 3 3 30 39 60 80
30 41 57 77 60 80 7 5 87 119 105 149 6 9 12 18 16 21 3 3 16 23 29 45 13 22
28 45 33 50 16 19 94 143 127 201 19 32 37 61 41 64 3 3 23 38 43 77 21 40 41
75 46 78 4 3 -5 -32 -22 -78 -40 -112 -119 -339 -123 -357 -3 -8 -22 -75 -44
-147 -21 -73 -37 -133 -34 -133 2 0 -1 -8 -6 -17 -5 -10 -11 -31 -14 -48 -3
-16 -9 -41 -12 -55 -7 -27 -12 -55 -20 -97 -8 -43 -18 -155 -17 -183 0 -14 1
-50 2 -81 2 -70 7 -76 50 -80 41 -4 73 -36 96 -96 17 -43 21 -44 71 -20 13 6
25 8 27 6 3 -2 6 -35 8 -72 2 -46 7 -67 15 -67 7 0 13 4 13 8 0 8 23 37 90
114 l25 28 35 -17 c33 -17 35 -21 36 -68 3 -126 2 -122 31 -130 27 -6 78 -57
88 -87 5 -15 10 -15 38 -3 18 7 34 15 37 17 3 1 18 -5 34 -15 25 -17 29 -17
45 -3 16 14 22 15 58 2 91 -32 153 -80 153 -117 0 -53 56 45 75 131 1 3 6 16
12 30 6 14 22 52 34 85 13 33 36 80 52 104 16 25 44 88 62 140 44 128 51 145
67 162 7 8 24 39 38 69 14 30 28 57 31 60 3 3 10 16 14 30 4 14 13 32 19 40 6
8 20 31 30 50 36 65 41 73 56 94 8 11 30 35 49 54 31 31 32 34 17 51 -17 18
-15 34 13 96 5 11 20 48 33 83 12 34 26 62 30 62 15 0 17 -18 6 -51 -10 -31
-15 -47 -19 -67 -1 -4 -10 -31 -20 -61 -11 -30 -19 -56 -19 -58 0 -1 14 -3 30
-3 21 0 30 5 31 18 4 57 11 77 41 110 32 36 111 187 139 265 12 34 24 43 69
52 3 1 23 9 45 19 22 10 58 24 80 33 22 8 49 19 60 24 72 31 301 119 311 119
6 0 16 -19 23 -42 7 -24 16 -52 21 -63 10 -23 51 -135 55 -150 2 -12 14 -43
25 -70 5 -11 14 -38 21 -60 7 -22 16 -45 21 -50 4 -6 20 -47 36 -90 32 -86
107 -269 123 -297 14 -27 11 -42 -11 -58 -15 -11 -20 -26 -20 -62 0 -42 4 -51
41 -85 22 -21 46 -38 52 -38 7 0 12 -10 11 -23 0 -12 3 -22 8 -22 4 0 7 -6 6
-12 -2 -8 9 -13 27 -14 16 -1 30 -5 32 -10 2 -5 14 -27 26 -49 18 -31 29 -40
49 -40 35 0 45 -11 52 -60 3 -22 8 -53 12 -70 3 -16 7 -36 7 -42 0 -15 24 -18
29 -4 8 21 72 91 83 91 19 0 38 -27 25 -35 -13 -8 -13 -25 0 -25 6 0 35 -20
66 -45 41 -34 61 -44 78 -39 19 4 25 -1 41 -35 10 -22 21 -39 24 -37 15 9 67
-23 81 -50 20 -41 20 -41 38 -18 14 18 22 20 49 13 20 -6 34 -18 39 -32 9 -30
22 -37 68 -37 l39 0 -6 -51 -6 -50 32 7 c18 3 61 16 97 27 36 12 72 22 80 23
8 1 47 12 85 24 39 11 77 23 85 25 16 3 122 41 155 55 93 38 473 180 483 180
6 0 12 5 12 10 0 6 5 10 11 10 6 0 53 16 103 36 231 92 413 167 438 180 15 8
30 15 33 15 2 0 26 9 52 20 72 31 113 48 121 50 6 2 36 16 179 80 23 10 47 19
52 19 6 0 11 5 11 10 0 6 5 10 11 10 20 0 480 219 569 270 8 5 56 31 105 58
50 27 106 58 126 69 20 12 47 27 60 35 13 7 26 16 29 19 3 3 19 13 36 22 58
30 255 177 321 241 l67 64 23 -31 c12 -18 30 -41 38 -52 9 -11 28 -35 43 -54
42 -53 182 -192 237 -236 28 -22 52 -43 53 -47 2 -5 7 -8 12 -8 4 0 34 -18 66
-39 33 -22 81 -51 108 -65 27 -14 75 -50 105 -79 79 -73 163 -137 258 -196 46
-28 85 -51 88 -51 2 0 34 -14 71 -30 70 -32 242 -85 309 -94 115 -17 172 -20
300 -20 153 1 375 11 415 19 14 3 50 8 80 11 30 3 57 7 61 9 3 2 21 7 40 10
38 7 177 41 224 55 135 42 176 55 215 72 74 32 224 109 241 124 8 8 18 14 22
14 3 0 27 15 53 33 25 17 53 37 61 42 63 42 270 245 298 293 11 18 23 32 27
32 4 0 8 5 8 11 0 6 11 25 24 42 39 53 94 159 135 261 22 53 38 96 35 96 -2 0
2 14 11 30 9 17 13 30 11 30 -3 0 1 18 9 40 8 22 14 43 14 45 -1 5 6 44 16 95
3 14 8 45 11 70 3 25 7 56 10 70 10 43 12 461 3 550 -7 77 -14 126 -19 140 -2
3 -2 8 -1 12 0 5 -8 42 -20 85 -68 247 -195 478 -408 742 -94 116 -116 150
-98 156 6 2 37 11 67 21 74 23 170 67 196 90 33 30 41 55 38 111 -3 43 -12 64
-60 135 -84 123 -111 157 -180 223 -50 48 -63 67 -65 95 -2 20 -13 44 -25 55
-12 11 -29 35 -40 53 -10 17 -22 32 -26 32 -4 0 -8 5 -8 11 0 9 -21 40 -70
103 -8 10 -37 42 -65 70 -118 122 -203 163 -337 164 -47 1 -87 -1 -89 -3z
m-30 -1382 c-1 -5 0 -10 1 -13 1 -3 3 -14 5 -25 1 -11 6 -37 9 -57 22 -134 20
-109 11 -218 -6 -71 -21 -175 -40 -275 -17 -93 -47 -160 -110 -249 -38 -53
-73 -96 -77 -96 -4 0 -8 -5 -8 -10 0 -15 -49 -69 -176 -195 -134 -133 -138
-137 -239 -207 -71 -50 -255 -152 -255 -142 0 2 -19 -5 -42 -15 -38 -16 -137
-43 -208 -56 -30 -6 -171 -16 -260 -19 -70 -2 -120 11 -120 31 0 6 5 35 11 63
6 29 12 59 14 68 2 9 4 18 5 20 2 1 3 5 4 10 6 27 34 97 61 152 99 206 277
422 530 645 44 38 85 74 91 80 6 5 29 25 52 43 23 19 50 41 61 50 141 119 361
267 534 358 116 61 148 73 146 57z m-8701 -64 c11 -9 54 -40 95 -68 l75 -51
-21 -52 c-12 -29 -24 -55 -27 -58 -3 -3 -6 -12 -8 -20 -2 -8 -12 -33 -23 -57
-10 -24 -28 -64 -39 -90 -12 -27 -25 -56 -30 -65 -6 -10 -10 -25 -10 -33 0 -8
-4 -15 -8 -15 -5 0 -9 -6 -9 -12 0 -7 -12 -38 -25 -68 -14 -30 -33 -76 -43
-103 -22 -59 -31 -54 -16 10 14 62 33 170 37 208 1 17 6 57 9 90 9 81 9 331 0
385 -7 39 -6 42 8 29 8 -8 24 -21 35 -30z m5904 -975 c-7 -12 -11 -13 -17 -4
-4 7 -2 16 6 21 18 11 23 4 11 -17z m-3243 -248 c-9 -19 -15 -23 -20 -14 -5 7
-1 19 9 29 22 22 25 17 11 -15z"/>
</g>
</svg>
